<svg xmlns="http://www.w3.org/2000/svg" width="1200" height="675" viewBox="0 0 1200 675" role="img" aria-label="Object tracking and computer vision dashboard mockup">
  <defs>
    <linearGradient id="bg" x1="0" x2="1" y1="0" y2="1">
      <stop offset="0%" stop-color="#0f1b3f"/>
      <stop offset="100%" stop-color="#20789e"/>
    </linearGradient>
  </defs>
  <rect width="1200" height="675" fill="url(#bg)"/>
  <rect x="90" y="70" width="1020" height="530" rx="24" fill="#0a132f" stroke="#63d0ff" stroke-width="3"/>
  <g opacity="0.26" stroke="#4dc4f0" stroke-width="2">
    <line x1="130" y1="150" x2="1070" y2="150"/>
    <line x1="130" y1="250" x2="1070" y2="250"/>
    <line x1="130" y1="350" x2="1070" y2="350"/>
    <line x1="130" y1="450" x2="1070" y2="450"/>
    <line x1="130" y1="550" x2="1070" y2="550"/>
  </g>
  <g opacity="0.28" stroke="#4dc4f0" stroke-width="2">
    <line x1="220" y1="100" x2="220" y2="570"/>
    <line x1="380" y1="100" x2="380" y2="570"/>
    <line x1="540" y1="100" x2="540" y2="570"/>
    <line x1="700" y1="100" x2="700" y2="570"/>
    <line x1="860" y1="100" x2="860" y2="570"/>
  </g>
  <rect x="300" y="220" width="180" height="130" rx="10" fill="none" stroke="#ffd45f" stroke-width="5"/>
  <rect x="640" y="280" width="220" height="160" rx="10" fill="none" stroke="#7ef0c7" stroke-width="5"/>
  <circle cx="390" cy="285" r="6" fill="#ffd45f"/>
  <circle cx="750" cy="360" r="6" fill="#7ef0c7"/>
  <path d="M390 285 C470 250, 580 300, 750 360" fill="none" stroke="#ff7fc7" stroke-width="4" stroke-dasharray="8 10"/>
  <text x="130" y="640" fill="#dff6ff" font-family="Segoe UI, Arial" font-size="38" font-weight="700">YOLO + TensorFlow + Kalman Filtering</text>
</svg>